<?xml version="1.0" standalone="no"?>
<!DOCTYPE svg PUBLIC "-//W3C//DTD SVG 20010904//EN"
 "http://www.w3.org/TR/2001/REC-SVG-20010904/DTD/svg10.dtd">
<svg version="1.0" xmlns="http://www.w3.org/2000/svg"
 width="700.000000pt" height="700.000000pt" viewBox="0 0 700.000000 700.000000"
 preserveAspectRatio="xMidYMid meet">
<metadata>
Created by potrace 1.14, written by Peter Selinger 2001-2017
</metadata>
<g transform="translate(0.000000,700.000000) scale(0.100000,-0.100000)"
fill="#000000" stroke="none">
<path d="M3466 5465 c-12 -13 -24 -52 -40 -140 -2 -11 -7 -60 -10 -110 -4 -49
-9 -112 -11 -140 -6 -62 -13 -160 -20 -285 -4 -52 -8 -117 -10 -145 -2 -27 -7
-93 -10 -145 -3 -52 -8 -115 -10 -140 -2 -25 -6 -81 -10 -125 -4 -44 -8 -96
-10 -115 -2 -19 -6 -64 -9 -100 -3 -36 -8 -75 -10 -87 -3 -12 -8 -53 -11 -90
-4 -37 -8 -75 -10 -83 -3 -8 -7 -37 -10 -64 -4 -27 -11 -72 -16 -100 -6 -28
-13 -64 -15 -81 -23 -136 -80 -299 -128 -364 -107 -143 -329 -260 -581 -305
-16 -3 -39 -8 -50 -10 -45 -8 -136 -21 -215 -31 -208 -24 -305 -55 -316 -102
-22 -84 43 -113 436 -198 331 -71 583 -187 745 -342 145 -139 237 -292 285
-473 38 -144 46 -165 64 -168 10 -2 22 0 26 5 5 4 23 62 40 128 55 209 136
351 283 496 190 187 403 277 916 389 146 32 232 63 264 94 24 24 21 68 -6 94
-20 19 -107 57 -107 47 0 -3 -10 -1 -22 4 -13 5 -48 11 -78 15 -30 4 -66 8
-80 10 -14 2 -47 7 -75 11 -27 3 -66 9 -85 11 -71 10 -232 46 -292 65 -61 20
-228 95 -238 108 -3 3 -30 25 -61 48 -73 56 -103 91 -138 161 -55 109 -96 274
-135 552 -8 58 -18 130 -21 160 -3 30 -8 71 -10 90 -2 19 -7 67 -10 105 -3 39
-8 97 -11 130 -3 33 -7 80 -9 105 -2 41 -8 123 -20 285 -3 33 -7 107 -10 165
-3 58 -8 130 -11 160 -2 30 -7 87 -9 125 -18 264 -36 367 -68 387 -19 12 -44
9 -61 -7z"/>
</g>
</svg>
